<mxfile host="app.diagrams.net" modified="2021-06-18T09:17:15.284Z" agent="5.0 (X11; Linux x86_64) AppleWebKit/537.36 (KHTML, like Gecko) Chrome/91.0.4472.77 Safari/537.36" etag="I3VCnL_xrUNblIpc5Foj" version="14.8.0" type="github">
  <diagram id="Os4tncAXXavLpmldtd_1" name="Page-1">
    <mxGraphModel dx="1053" dy="635" grid="1" gridSize="10" guides="1" tooltips="1" connect="1" arrows="1" fold="1" page="1" pageScale="1" pageWidth="827" pageHeight="1169" math="0" shadow="0">
      <root>
        <mxCell id="0" />
        <mxCell id="1" parent="0" />
        <mxCell id="Zlwu35_rKuIvJYIm1bEe-1" value="" style="shape=image;verticalLabelPosition=bottom;labelBackgroundColor=#ffffff;verticalAlign=top;aspect=fixed;imageAspect=0;image=data:image/png,iVBORw0KGgoAAAANSUhEUgAAAMIAAADMCAIAAACuiesWAAAgAElEQVR4AeydBVhUy9vAl1g6LRRUFLsVUKQUBVG6u7uWlG6VUkmDULpr2aBrqQ0MVERKahcpUa/eMO7/XvV7luM9dy8lKij3fnue8+icOXPmnJ358c47M++8AyGQUNSTWgLfWAKQb3ye+vjyKYH6RwUljSklTXOdqfWPCpboa6kY/XeEcXZZvKe3h9Mch9tZ1wzkNTwRuRQkUTH6L2GU4OF5FjbH4ermQsXov1PZSyEMgDyzyxPcPc86zHFQMaIytKASoGK0oGJaur/j/0bOVIyoGC1CCVAxWoRC/G9IlG/5FVSMqBjNXgJ4IhI3iFggWzkVCZ5e7nN01GBuZ10z0depHf7ZC3pmEaeXR5+7crb0dtrMW18XU9yS5HfZKRUd+XWPf8tTlXdzbhbEVtzO/mwm9Z0FXuec5eXlZP95nDlzRn7qUFJSDLzo0dwH/2xWX5Hg+40bNffDYzKDtEwVpeREpc6IqhmeOX/1bMti/yrcIEJIdB8zK5PPRQfc0OIMtYVc92BkYjB20PyK8v2WR/BEZGxSuNtZ14BzPmnwqw3dRfPkll+XKH3qxKEZhyDFIackW3E3a55MvvrWd8IotTRq9dpVUCg9DQ0NZOqgoaGhp6dbvWbFlZzzX/31sz5o5qjNx7/2RsnFWe9+ReSPwqj8do6bmyvQSLmddQu5HFhKyCAQZ5fKKUVx5hbmRnMfhlNHdln8F5QAEdX8GL6QP/Ulx6ilHx4Q7cLJxc7BxXZKSTKhMKz0Tlrp7bS0sihl3VM8vKtWrOLyiYBhB0q+4OdNTSfjicjgOLfjp0XSyqK+9NkvSv9DMGrug7v62FtYWMBgMGBA0cnJycvXIyknurItp6X/U3Fh+0tqH+anwa+4ubs6OTk5zns4Ozv7BXkhseng4zPLoaW/BNNZiMZnpBTGRV4P8Qv0unwtBDf0Gf1syTFKLY3avG3DitXcQTFumK5/TA3iici4rHObtq5fxbPiK4QHbgghdUaUfwvffxKj5JJIcQnR48ePm5mZgSQBkinwvG98ZmRORUJuRWJCZuT5iABnF2cwzRyD2J+iHR0dfQK8knKiylozG7qLcIMI4MR0FaHxGTkVCVdTL4VHB3v7fZqbc3Z2DrkU+OMx0jSRp6encw60xM+mqeCGkD4RMCZmRpHjgl+q/f2HMWroLrR2Njly5IiQkJC0tLStrS0lJTAYzNnF2d3zrLvnWZcFAwTiBYPBXN1cfPw9z0X4R16/cPnqhcjrIcFhft6+Hu6eZ52cnABYgfSOjo4/HqOGrsKVq7lFTwiVt2XMlJ9ADAKffEhkDxRKn1N7FYjRs1Lh4V11NfdCASZeUVuGiZkRAoHs2CNwNed8Sz+5o9HYW6RlqgjoWOC/GzatQxJSCCSUsb3GytXcUemBlG+seZhz9rz15m0baOloaWgg/AJ8YQleZLKJqLrOvNjsc4JH9wJZbRTg9Qy1rXuUDz7+/Ru1osYkFQ0F4alDUFBQWVnZyckJ5GBRAjAYzMnJyfmvw9HRkZJU8BXLAqOruRdoaWkNbdWbHheDtTIt0PS4WEXvNC0t7aVkP+CWnpXKmnUrzZ10BLbzn5QXU9CSllU5vnnbBq4VHJ6hdi398JZ+eHCcm4LmybV8a9jYWSRkjihoSRvZaVS358zECE9EJhSGbd21iZOL/ZisiIKWtILmyaNSgjbuBthBRHNfsSlMa/XalVJnjpJvaZ3cuW8LAyPUwkUP/ObvjBFuEBEe7ycuIQZgJCQkJCwsbGBgMGs1g/W9RIFlgZGjnxkTM6PbOet5Glf8ENLWw4geSm/rYQhixMjEwL9l/fkr7phusjrV3A9PK43afXDbuvVripuTgGRzNWrTpFFhY8I+oZ2MTAznrpyt7cglEFF4IrLiXiYcewNPRDb3FUck+USm+td15hFI5Fs5tVc3b9u4X3gXINsIJNR3xqihp8ja2eTw4cMARsLCwoKCgpKSktbW1t+fpGWBkYWzDgsbs08EbFbFCKABT0S6BllCGaDG9p8GZvSsVGhpaU0dtSm1JTwR6XMRxsDI4BPhsHCMsIMlLoGWDIwM/pFOcw3g4gYR026ZwrR5eFdllMcCL/rOGKFvpcvKyVBiBJCkoaGxpBgBzdy0VywLjOy9jJlYmNwv2M4zEognIh18TKBQeks3faDa9KxUuFZyXkr2w/9zjCQFHblhE6+micLCMarvzJdVOc61gqPqwWcGght7i8rbMgobE7JrrhjZaUAZoFfzLvwQjGJSz4mIHAFFEdi0SUlJ2djYzNp42dnZWVlZ2dra2tnZ2dvbA2nmmhWhjHdwcLC3t7e1tbW0tDQ0NFRTUzMxMaEkaVlgFJsZTEtLa2Sv0dw3p27U3AdXMzhDS0sbnuQNYsTDu+pafghwCf6bW3t1+57N4tKHgZiFNGrVD3NEjh86cHg3dnDOcamChngHHxN1Izlx6cMC2zeuWbcKAoH8QIxCr/lME0UASSIiIrNqSI6OjmZmZpKSkidOnJCVlT1z5oySkpKampqWlpaenp6hoaGxsbEJxWFsbGxoaKivr6+tra2urq6ioqKkpKSsrKyurq6npzetV7gsMCpuTmJhZZY8daTyXiZIw7QAqjVVWGw/EzMjOAsG9NRmYpSCurxh0zot0y+QRp/FqKg58bDEAUYmhpPy4n6RTldzL6SgI01hWj8Qo7DrvrNiJCQkpKCg4OjoOE0gOTo6mpqaCgsLy8vL6+joqKqqysnJycjISElJSUpKSkhISEpKHvvrkJKSkpaWlpWVVVBQALgxMzOztrYGZBilHALesiwwwg6WiEgegjLQx2QGzTqKjyciz19xZ2ZhklGSBPHSs1JZvXblzEmSy8n+LKzM3uFfoBthugsUtWXWb1pX054L5k8ZcDtnxcTMmFgcQRnpEWK7PDE6duwY2GaBMIEYaWtrA314wKjf0dERaLBsbW1tpg5bW1t7e3tABwJSzoQSzHYZYUQgoS4l+3Gt4Niygz82M3iahoQnIpORl3fsFeDdwJNVFQdWJFnFpqM1d9YBRomA+OY+uILmSe6VnMmoy0AM0KjxbZw+fUbZU2sZKHHyN2dhZT573mbW3uJp1eP8W9YXNiaAb2/oKRQS2788MTpy5IiFhcW0uofBYJaWlkeOHNHW1p4mTijVIDA8DZT5Lx0dHSNizs3TQwLKbcknQzBd+Q4+JmzsLKt5yENB2TVXKu5lVtzLzKm5YgrTmpon4fKPdKLUXfSsVCAQCA/vqrPnrYHZn+r2HKuz+kzMjEo6p4AhAKBzrm4kx8TM6Bpk2UIxJUeJEYGEKm5JOnhkDyc3h0ugZUUbuW3FE5F5ddfiC0JxQ0grN3K2zgHmALKo1lQVXdkNm3mXIUbCwsJCQkK6urozMbK3txcTE1uKrhwMBkvIjpy1JQH/8Agk1JJjRCChWvrh4YneHJzsdPR0rGws7Bys7BysrGwsdHR0HJxsV7LPTZuXBRo1U0dt7pWcHFzsnNzs7Jxs9FB6IdF9qFbyODV45tVdY2VjYWRi4OBi37V/G/oW2cZoGkZ4IjKjPGbFKm4olJ6dg5WTm5whKxuLkZ0GdhCRURGzftM6BkYo8CI2DlYJmSNu56yXJ0aHDh1SUVGZOaLt5OQkIyOjoKAwv2j5iruOTo7JhX83FGDJTwt8D4yAVzb0FnqH24udENp1YNvug9tPyIlduunX/HgWKypQxc6uuaKoI7PrwLZ9gjthvqY1D2fRbxKKwsWlD+86sE1GSaK6ndyrd79gc1RKMAn+D3UHN4TwvQQTnXr7fuFdzgEWZXfSAcmUW3tV11Jl14FtwmL7vcLssAMlF2/47hPamVr6yXDgSs65A4d3u1+wmVZ2S3Q5l4otLCx86NAhOTm5WTFSV1eXlpa2s7P7ClbmegQGg3n5uCOb5zMAxA4i0LdSvx9GCy90EKOFP/JfSjk/RqdPn57WqDk4OMBgMDMzs2nmAHPBsfB4GAwWcM6n4s6cQ24IfLJrsNWho3upGP3dRC4TFr8CI2AU8fTp04s7iQuDwUIuBdY9/HuWGiyimo5cJ38zgR38TCxM5Clt8MbyCVCl0azjRkCjNqs0AgSSkZGRmJiYjY3NtP7awsXPtJTOzs4xSeGzKh5J8IjdB7YzMEI/mbMuH3rAL6FiNA9G8vLyM3UjsPoVFBQADWlRSHL3OJtdljBtwhGsJgIJFZHkI3VGlGsFB1Ua/ZsaNUFBQTU1tbkwgsFgdnZ2MjIyysrKIFhfHYDBYJ7e7mjCnIZiAE/V7dlR6YHLEaP6zvyKe5nNUxZqlOz/PwnPoxsJCQnp6+vPVLEpWbGzs5OVldXU1JyLNsrE84SdnJzOR/jP2qLNrIjliNHMr/x/FTMXRkJCQiIiIpaWlvM3WDAYzNraWlZWVltbex5KPnvL2dk5uejzI0ZA1VAx+tc0akJCQrPOqc0EAiBJWVlZVVWVcm3JzJRzxZDttc+6VLWRrUkXclIxWlAxLaQoFyvNPNJIXl5+/hYNxAKQWEZGRsrKyrq6ug4ODgt8EMjByckpLDp44eu+qRj9azA6fPiwrq7u/C0aiBEQANDR1taWl5c3MDCwt7efy3R/5oOZqGsL/8NYQozwRCSyNSW+MDQ8yRs4YzKDyu6SpyCo5zwlMJc0kpCQsLS0nFbfn72EwWCOjo42Njb6+vpaWlq6urpGRkbzz5nAYLDAC741D2YZdZzrs5cKo/rO/LPnbYTE9q1YxQWuAWLjYL1wzX2ecYi5vvL/VfysGAkJCcnJyc00NvosRmACYDjA0tLSzMxsfoycnJ2upF6cZ2XtzOpYEoxa+uG2nkaMTAwbBXhdAi2SSi4mlVy8mnte21zxItnCenE8NMz8Mf+NmLkwMjQ0/KIWDQToSwPe/p7wxn9YUny2YJcEI/StVIEd/Dv2bantIK/aoZ5fVAIzMRIUFDx58iRguPilTHxpevJw0cWAhq75vJfM/DlLglEqOoqFlVnfShW7YBdPM7/s/23MxcSAmZMhhoaGX9TV+lJ6wPTOzs5f4fd4CTFS0JKmNEqcFQvsICIy1V9RW+awxIHDEgfUDeUyymOAlHgiMrfump6lsrD4fmHx/ar6p5OKIyi7oNEZgYclDpy/Rl4S6ehnKiy+/4jkQVNHrWaKFbr1XflGdura5kq4KQs1OXUpYfH9x2VFYrOmW/QSSChka4qtp9ERyYNiJ4TsvY3L7/5jHsDBx0RRWwbVmnITcUlC5sgZNanKe0viKyi35vrxE8fABUaCgoKysrLzMAQo0d84Zg1g5OTk5Bfs1TivI6VZ63FJMKq4n7lr/zYIBOJ3yXFWC2jgUxp7iw+J7qWhoaGjp6OfOunoaIG1s+RV+iYK9PR04C1aWlp2TrYL1zxA1cr3EoyGhsbQVv2EnCiQjI6OjoYGsvvg9qbeT+uZgJUh+4V3xReG0dLSAm+hpaXlXskZnR5EWSKABKWl+zsNvwAfJSgKmic3b9vgEmgJ5LNRgA/dmkqZw2KF6zrz9c20AIEkJCR09OhRc3PzmVoRYJnv6urq4uLs7edx4VKAo9P0RSOgjFlgwNHRMb/q06LkL/o5S4IRbggRkeSzlm8NBAI5pXwsOiMQNKAGP678bobg0X2MTAx6liqlt9IIRBR2EJFWGnVtapFhQ0+hpau+kZ1G2R2y6R1uCBEQ5czOySajJFnf9akj6nsJBoFANgrwaZspVt4nC4a8+utCovsgEIhHiC1AG4AR90rO3Qe2X7zpS3bCMoRwD7FhY2cVOyHU1PtJA0gvi2bjYN1/eNfV3AvAiuzQeE8e3tW79m8DciaQUAqaJ1fzrNi5b0tYgtc0q1/wRy1KoKW/xC/CVeSoCCCQlJSUQAgAwePo5Ojp7R543jc8JjgVfgWJTW/oLqp5kBd43ncmbeCznw04OjpeuBiAG/iMK6NZf+OSYDRlf10SmxkseeoIDQ1k5WpuOfUTWZWf1jITSCjsQIn7BRsWNmZ9a9WGqVX60z4OO1hSfjeDsglr6YefUj62aesGwOCaQEIBGB06uhdc4IYnIqPSAiA0EFmVY8DCbQAjeij91dxPS2AJJFR9V/5pVfJSWqDZauwpktc8ycHFFl8YBn5Gcx9cz1KFkYkh5LoHEKmgeZKWluY7uO7DE1E34ZEysieA2Q9LS0vA95WTk5Onj/v5iIBraZcKam9U3Mlu7CkGje2r7+f6B3t/NUYwGMzN3TWn7O8VMmBRLCSwVBgB767pyI244bNt92YaGpo1a1e6BFoCZFS3Z0srSjBSLHH87Lfih5A2HobMLEyg/xqgUbN00wObOQIJVXYnnYOLQ1B0HyBFAIx2HdhGuWwXO0hedcTMwgSsVcquucLHv1ZYbH9jzz+6J5eT/ejo6cyddYFvVtA8uXI19w34ovkCnOcnl9/J1DZQFRQUNDIycnV1dXJ2Cg7zSy6MLb+d1dBViB0ombYsnUBCZaKuOzt/vfMaRyfHiNhzmM7Ceb5qnltLixHwYkxXgamjFjsn2+q1K2Mzg8mj24TkA4d3HZY4MM+X1XfmFzYmRKb6mzvpiB4X3LprMwQCYWCEZldfAZ4CMLL3NqHMpKItk3sl1yGRveVTa4kAjKYtvsYOIlwCLZlZmJKmmIjNDKIcIwUHSyEQCB09nSlMG+hvArpRQcOX+E782sEOPBF1McHf0EQ/LCo4pSgOhUvH9U/3V0H5q3FDyPCo4G/Rsr19PQtrb1Lm+UXh74ERsAAjMNqFkYnxlLJk0+Piz2KEvpWqZarAyMSwY++WU8qSagZntM0U9wvvWjqMBHbwa5srTTt1LZWj0gKAxX7fEyNyy/uoAIlNW6C5T9XdnLPuZGejn1WAZk0wZSwbtsB3zYrXd8KIQELVduQeOLx787YN1Q9yytsyxE4K79i7hdL1DPh9uCGkR4gtKzuL70VYPia+9lEeWYwPIe29jZcCo2TkZZ51q46fPjq/4vydMQJLYyGBDNR1FxeXr8PI0dHR28+j+t4si7cW8mogzffDqKo9e9f+rXsFdzT0FNZ35SvpyECh9JkUejf40c19xcdkRXYd2Ea5MA07UCJ1RnQpMEISkjdu5l21hrsEN59UX7YY4YnIS1cuODs7zypp5o8ERg1yKxPBwv+6wJJglFAY7hpslVUdV9+Z39hb2NBTWNyS5BVmz8TMpGmiAFjHXsk5v5ZvzY69WzLKYwD3eHgisvJeJvpWaks/XF7j5Mo13OTxxinHo3WP8gKjXVes4loKjHCDCD1LFTo6OgVNaSQ+GdBeG3uLMitjYX6moLxcthhhOgv9gr3nGZ+chyRyc5YY1jTbotMv4mlJMLqc4kdDQ7Np63pZlWMKWtLymif3C+1iYmYSEt0HDlI39xWfPW/Dwsq8eesGJZ1T2uZKWqYKkqeOuAZZ4onIC9fcObjYd+7bommsoG2udEr52IHDuxW0Ti4FRgQSqup+1gl5MUZGhiMSB7XMFLXNlRS0pDdt2yCveRIcdFi2GMGbUuwd7BZoSESJFLCaEYVLB0cNvggdysRLglFdZ354otfx0yK0tLTk/g4d7bY9AgGRzhX3MimdijT3FefUXFEzOMPByQaBQJhZmdQM5Qow5K5QQ09hyHWPvYI7IRAIBxebgbVa6e20JdKNgOKobs/xu+y0Zecmmqlj685NAVFO4NgjMPy4eduG79NTo6yh+cP4IWTYVV/JY5Lq6up2dnYLV4/IZrKurtll8ZQ1Mv+75rm7JBjN8z7qrcUtAUxXgQXM8PDhw4KCglJSUsbGxoADGkqpM2vY2cX5avLFrxuznvkTqBj9u+1YWvrhF+K8pU+dAEgSERGRk5MzNTWd3/ja2dk5LCoI9Ng8E4svjaFi9O/GiEBCYboKEgsuahuoHT16FPCBJC4urqKiYu9gD7rcp/SRBVgUld9ZTPMEKkbLGqPmPjgceyMfcz2v/hoSn0zpfm6awMB0FYRe8zkhffzI1GFgrlWISboYdx5w4Af+6+zs7OntXlSfPO3xb7ykYrR8McIOIs5fdZeQFj5wePeBw7ukFcSnHB/OOQOPJyILMInJJZGpqGjAgXNzXwmyJa24PrkY8+ksqrtZ9W0jjbMCR8Vo+WJU35mvrHuKkYkBAoHQ0EDYOVnNnXSW55p0KkbLF6PajtzTqsehUHpgtpiFldnQVr25f04P47PKie8TScVo+WJU15mnZnAG2MCJPH7GyWbpojePevR9iJn1LVSMli9GZJvPSOe1fKunGjUage0bI1M/mRvMWpc/MJKK0fLFiEBCXck5L7B9Aw0NhIaGZr/wrvSymG+fuFgK2qgYLTuM6rsKqtuzAauVq7l/Y3Tg8C7ypkr/3I5nKZj4ijypGC0jjJoeF99AXNSxUJbXPOkSZFnQkBCVFiCwfSMgjbbs5I/OCKK0GP6K+l6iR6gYLReMsAMlSfAIqTOiLGzMDAzQlWtWnJAT07VQ4du4FnDTycnNbuNu2DIwiyfxJYJj4dlSMVouGJXdTdcyVWRhY+bi4tLT0+Ph4YEyQFeu5gbGjSAQCAsrs5GtBnXcaLlU2ML/yL5nyrisYGAJjbGx8R9//HH58mU6OjrK9QVkjOyoGH3tMonvWZc/8F0B0S7AjoDm5uYfP34kkUhMTFOey/9CiYWNihGVoc+VAIiRmZnZx48fR0ZGpmHEzMKkZnAGfSt1GWrZVN1ouTS1lBiNj48nJydDodC/JBH5fzo6uo0CvLoWKhdv+t1EXKrr+AJvaEstZakYLTuMTExMysvL16whe0CYeTCzMK1bv+boccEEiqXic1HSMgBv7C0Cz+a+4iWSZFSMlhdGUCjU39+/traWl5d3JkNgDP+W9bGZnzyi4Iko/BAST0TihpDV7Tkl2JsluJsIXHJhY8LFGz4eIbbgGRLvWTH3pr9zsbiQeCpGywsjNja2yMhINzc3Lq6/fWaC9AABGhoI/xa+izd9m3qLajpyU0ujotICo9IDw5N8LJx1pRUkTiqISytKHDt1hH/Leq6VHFwr2LlWkDcjFDy6N+WvLVYXAsfC01AxWi4YBf7VU5sGzayXnNzs0goSZo7aWmaKB47s5t3As279Gp51q0BzgFmf2rpzU1Jx+MLhWHhKKkbLAiP8EDIgyhno8M9KwLRIGhoaBkYGFhYmJiYGGlqaaXdnvaSlpdkvtCut7NOWlQtHZCEpqRj9SIwwXQW1Hbmo1pSrOee1zZQ4uTlmJWDhkXR0tOwcbNwrOMjnSk5WNhZgqSAEAoFC6cVOCGXXfPLHshA4Fp6GitEPwAg7WIK+lZpQGGbraWRooy6vcUJg2wbyls505NWhCzyAZZmMTAzr+dfu2Ld1594tO/dtFTspbOdp5BFq6xFq4xlmq6Iry/UXmjQ0NLwb1niE2jb/5dFw4ZR8NiUVox+AEZKQom+ttm3XZjYOVigjlJ7+C+gBIOPgZJM8JaJtpmTmqHM52S+tLDq1LCq1NCofc725D44bIvsmJDs9SvLh3cgDckkPpVPWOVX9YM69Yz+Ly1wJqBj9AIzy6+NFjh2kpaOF0EAYmRi4VnCsWM3FtYIDnIUFK36uwEYB3tB4z+r27JqOXOxgyVy1G50RyL91PZgJIyODuqFczcOF7ks0V7Yz46kY/QCMkPhkHXOlPYe27xXcIadxwjnA3CvMztbDaK/gjmnTsSABlAEaGsjmbevjsoJnVue0mOKmJAUtaRZW8twcLR3tlh2bzl91/6yX6WmZLOSSitEPwKhloASBu5ldfSWn5mrZ3QzAm1v53QxFLWkoA3kTYCYmJnr6TwtCKAECwgBGMX8NP85Tzc198JDrnhs2k0cyoQzQY7Ii+UvjdJCK0Q/AaNaKL2/LUNSWgTJA2dnZExISNDQ0Pm0qPZMjCGTT1vULwaihp9DtnPVKHm6yNKKlPXB4d3p59Kxv/8ZIKkbLBaPq9mwDG3VmVrLZWk1NjbW19awYQRmgDIwMW3dtWkij1twHD4p145vSshmZGRW0pEHnz9/IzbTHqRgtF4xa+uGh8Z5r+dZwcXFVVVVZWFjMxIidk1XqzFFdC2V7L+PCxgX5sC5qTpRRkoRAIHwb1164tiSKEYGEomK0XDDCDSHiss/xb1nPyclZUVHx9OnT/v7+zs5OIyMjkKf1m9ZFJPk09BQ29hYBGtU0qTDzsuZhjrmTDg0N5OCR3TlLM/ZIxWi5METe0GIQEZt5bqMAHycnZ3l5+cep4927d05OTiBGGzfzXck5P5OVuWJqOnKDYlwPSxygoYHs3Lc1LMELfSt1nl1c5srns/FUabRcSJoVo7dv38Jg5B12AD1742be2Kxzn61UMEFMZvCuA9sYGMnmb2zsLLv2b7P3Nq7rXPxN7qgYLXeM7O3tvw6j2o48HTMlZpa/Dbrp6GgVNKUBnzUgaosSoGK0HDGqqKgAGrU///wTiUSClpBfJI3Qt9KOyX7y4goIMyiUXok8GUIdxf6cYfyi/G39kEzwQ8j4grAde7cwMjIGBgb+9ttvAEk9PT0CAgJf0aihb6VJnqJi9N8lZi5MUa0pStoyZEfvCgpPnz4FMOrs7Ny8mbztDnnzuC/RjUpvp0udEaW0GqBKo+XS9MxFwKLE1z3KN3PUhkLp5eXlvx2j5sfF9l5GK9dwg6oVFEqvqCVd0Zax6J01qm60jACte5RnCtOaFyO+uOwF9dTwRLKRf1ZV3GnV42zsLIAwo6Oj3S+82zXYKrE4nGz2T0j5kjMZSUip7cgFlg8AK0zAdSZUjP5NGG3YxBudHji75COimh8XN/QUNfUWl95Ou14QGpMZFJboNYURM4ARBAJhZGRYuZp7n+BOGSVJWdXjX3TKqZ+wdjeITPWPzQqOzggMS/TOKI9p6CHv5Pf9MGrphycUhcmqHgNtIfj414pJC4O7iPhfdgJsPdP/2vx61vLCDpYcljgIgUDMnXTABBkVMcCuEmfPWYORMwO4IYS2mRIEAjkscQB9a0k2HL+QJSYAACAASURBVJ750oXHfFYacXCz23oYYrpn2YOx6XFxTEaQks4pCZnD+4R3reLh5uBiY+NgmdrGeUHG2iBq8wSYWBh516/h27h21ZqV69avCUv0AvZ4/R4YtQyURKUFiEoJQaH0m7auFxbfD2yXvl9o50YB8kIZoKABjCAQiJrhmXlMsWIzg4HfORMjCARyRPIguOfQzPrLqbnKw0v2gbd8MXLUhjLQKygoTE5OzlSx6ehopRUkZv4B4AYRFfcy08uirdz0dcyVDGzUTBy0TGHa5k7aRnYahyX2C2zZtG3bNgEBAT4+vnkomf8WKysrPz//nj179PX1bWysTaz1AmNcChsTsIMlS44RdqDkwjWP1WtXsrIxW7npp5dF1z7Kq+skn+jbaQmFYXDsDRAjWlqa1Twr2ThY55p3bOgulJITZWRi4OBin4bRlMtfNhY25hsls28H2zJQ4hxgwcrGwsO7enli1PS42CvcYeVqLiEhofb29pkY0dLRHj8jimpNmfYXgr6VauWmr2Esr22mqG2qaOdpFJbgFZkWEJUWEJHkY2Ct6uBkFx4eXl5eXltba0ZxWFpaWk0dioqK0KkDbCsokWJmZjYxMbl06RIGgwkKCgoMDJSTk9u3f89GAT4bd4P6rvwlxyitNJqHdzUjM2N29ZX5ffP4X3aCQulFTwjR0dFZuemDO1BRFll0RiAHF7vg0T1cKzimY0RLs3XXplU8K0SOHWrpm8WXVAnu5iGRPfsEd/Bu4FmeGBFIqLSymD2HdtDT06enp3/48OHjx4+UHf6/MJreHGdVxe0T3EEPpYdOnaxsLOvW82zYzDt18vFu4FmxgnvNmjUSEhIqKioafx1aWlr3799/PnX09PRkZmZmZGQUFRUR/jpKS0slJCQyMzORSGR3d7evr6+srCwXFxcz8ydli4mFUd9Kte5R3tJihCcitUwVmZgZI274UNIwa5iMEQN9UIwrz7rVwuL70bfTpiVr7oPrmiuzc7BG3PDl5J4hjWhpFLSkj58WhULpZ9WuotMCuVdwhsZ7reVbptKIQELl1V8XFN0LhUIzMjK+BKMrew5tp5QfCwzT0dExTh0sLCwrpg5RUdHsv46SkpLnz59XVlaKiYkxMJC9vE87mFmYDGzU6jqXGCN0axobO4ug6L6FWEsBGEVnBFm46HJwsYcneYP9SYCnvLprO/dtldM4kVkZNytGmiYKgTGuEAhE01QB2K4aBBFPRMprnNwntLOoMXFZY1R3/dDRPV+KUWZV3B7BHdPq+Nsv+fn5u7u7xcTEgKygUOjx48e1tLTExcUBqr4TRpdu+tLS0hraqTf1fd63PIBRbFYwApfMwcmmoifb2FtEyYF3uD0bO0tCYVhe7fVZMdIyVay8n7VqzYrtezbn1V8HnwX+yjm5OUxhWpiugv8eRkXNSeInhenp/+GdbVEw6urqEhcXh0AgYmJi0dHRg4ODP/30U25u7ooVK8g7KX4faWThrMPCxuwTAVuIjRWIUctAiaaJAt/GtajWv5WAxt7CvYI7j8mK1D3Kmwejln54UIwrGwdrUIwrKMxwQwgZRUk+/rXJyEstfSX/PYywgyW2nkacXOzfjg5lDvz8/ABGpqam79+/B1T+jx8/otHoVatWLXeMCCRUXNa5Fau4bD0MQYlyLfcCJzeHc6AFdqBkfoxa+ks2b9twQk4UXJCVW3uNk5vjmKxIzcPcZY5RQUP8YcmDDAwMaWlps+pGUnKiMzv8BBLKK8xuxeo5nZBQwrHwMICRmJgYgUD4+PHjn3/++fr1666uLiUlJcCF1/eTRgyMUCd/81m7XSAiQACURgQSqvR2mrj04Y0CfOV3MwDLwCOSB3fu2wo0VfNjRCChbNwN16xbBfT88UNIC2ddKJQ+MjWAQEItc4xqH+UZ2qixc7BpaWn973//+/jxY29vLzjDT+6pnRYtwd3EDiCwAyXks7+ktiMvt/aasb0mJ/eSSCMxMbFbt2798ssvBQUF1tbWkpKSoF8AJhYmfWvVJVexA6KcaWlpdC1VKLWcafSAl5QY4YYQjv5mDIwMwbFuBBIqsTgCygDVMlUEhhY/i9FNxCXeDTwmDpoEEqoEe2Of4M5tuzdjugqWP0YEEorsoWbtyh07drx9+3Z8fDwgIABQRICdQ3bu2wLzNfW77OR3ydF36rRw0T16XJCPf+3S6UaOjo5GRkZcXFwgQIBIY2VjMXPSWfJxo9JbadwruQ4e2Y0kTB8xA+kBA5QYEUgoBD6Zh3f1jr1byu9mnJATY2CAgk5VPotRXWeegpY0MwsTAp/sEwFjYmYEx8qXrTTCDSEae4uKm5OMHTS5VnAwMTEJCgru2DG9/wWF0nNwsnFxcwAnJzcH2b5x0WY7/tHigbrRP2LJOEPoofTMrMyHJQ5cyT2PHVjiUWzcEEJZV5aOns7J33xaDxykBwxMwwhPRFq56XNwsVu56fNvWX9E8iC4xe5nMSKQUBdv+nJwsWuZKMhrnhTYsbG2Ixd40TLECE9ENffDMypi7b2MT8iJreVbTbfYfa7pHCzsmp+fv6enB+ipgU/Q0tJwr+SUOi0K8zGNLwz9TlOzKehIsuu4FZxmTjrAdiogNwQSKqsqDhwqnIYRgYRC4lNWrOJauZqbhYWJ0pR9IRhVP8jZc3A7Jzc790pOS1c9sKu4DDEqb8sIue6hrCu7Zu1KKAP9X/b7YMX9sAA/P/+D9gfguBEEAmFlY965f6uxg2ZaaVR9Vz4oGpZ2FJtAQuGJyMAYFzYOVhpami07+COSvOHYG3DsjbTSKMBLAdjczMSIQEIpaktDIBDBo3vB3jt5EGjucSPKXeuc/M3Iy/z416aW/u1ibLlhhBtCXMk5t2XnJvq/dnFcdGrY2Fn3HNpxVOoQeIpKCQqJ71/Ht5qBkTyRxsBAPintJIFvWLGKS15Vhm/jWgiE3Ipt2bFR30o1oSgc003WMinPJccIICkJHiF5SmTdhjXglpdMzIybtm44LnsU3pIEfNCsGCUVR/CsW33+qjvlRy8Qo8r7WXz865R1ZeunlGsghx+OEXYQ0fS4qLo9u7AxIa00yjvcQU79BCv73yZB344RDQ2EgQFK1tP3CIhJCdl7m6SVRsFbkuDNf5/5mPiwBC8HHxMH76nTx0TDSO7A4V07923duW/rjn1bduwVUNI5dfGmr7aZ0t5DO3TMlWOzgudaVfI9MPpUf/3wxOJwj1BbJ38zpwBzv8uO2TVXKJu5nNqrLkEWJbiblMTUduSGJXpPm0upepDtfsHmBvzvmfyKe5lOAebX8i5QmofiichLN32TUZcpJRluEOkd4RCa4AV03CjftaRh7CCioi0Tjr0Zm3XOJwJm5qgtKXPkgPBuHt5VLKxMoJ3rNzJES0vLzsm2UYDvpLyYd7h9YlF4Ts2V2kezL0zD9pdgugvAs/R2agoqMqk4Ign+6SxqSmzug5dgbyYjLpXdTQebsJkF9f0wmvnu/3YMnojE9pfUtOekoCKv5V24cN1Dx0JZWkFi2+7N3Ku4WFiZ6ejppvWfZzIkLS29c+fOmfEzYxiZGfk2rj16XNDMUftSsl9RU2LT46IpU9p/tD7zlzk5/dDfJ5gY1CzBmGkBKkZfUMrTym7aJZmbgZLmfnj53YyChoTI1AAbD0NNE4V9Qjv5t/Dx8K5mYPjH5g0zUaCjo4NCoatWreLm5raysjI1NTU2NhYVFZ2ZEoiho6NlYmZct4FHSGy/kZ1GaLxnUVMi0HWa9m1LfUnFaNEwQrWmhid5eYTYKmnLHJE8uHnbBnYOViZmRtrPORxmYmISEBDg5+c/efKkqampn5+fgYHBoUOHtm7dOitAdHR07Bxs6/nXiUsLG9mS6cmoiKkle+9DLDUuc+VPxWhxMMITkVFpgXsFd6xYxcnEzEhHR7sQdYeZmVlVVdXGxiY0NFRfX3/37t1Hjhzh4OBgZmae+TgtLS0zKzPfxrViJ4RMYFqh8Z55ddeqHmRTdk7nqualjqditGgYhSd682742+3rrIIEiOTi4tLR0cnKytLQ0DA1NZWXl2dgYJjVehVIT09Pt4Z3lZDoPmN7zfAELwQ+uaGnkLLfsNSUfDZ/KkaLiJEP7wbyEMs8h6CgoIODQ1RUlKmp6f79+1euXDlrYhoa8rZXLKzM69bziBw7pGOhHHLdM7sqDtOVv6zoAfGiYrRoGCUWhQuJ7WfnZJvH++eePXtOnz4NhULn6qPR0dGycbBu2LTu6HFBI1uNC9fcMypiKu5lUI6MgJW3fAJUjBYHIwIJVdeZF50RZH3WQEL68MbNvJQeYWYVOdMiyfs0cLIePLzHzFE75LpHfn18bUduSz98eYqfaQRTMVo0jICSxQ0iChsTL6f4G9triJ4QWrd+DTMLIy1Z456GDfmShoaGjo6OcwW7sNh+ZV1ZW0+jFFRkS9+c7tKnVd7yuaRitMgYgTDVPMzNx8SHXvc0ddQWlz7Mv4WP3N5NTZyRJysYoZzc7Nt3C5xUEHfyN8+sjK24l1nfuUxVn8/ySsVoSTACy72lv6S6PbugIT4iydvCWVf85OGde7fsPrDtlJKkvZdxbFYwvOVGfecy2jUW/PIvClAxWlqMwMoArNKKmhLTSqMyKmLQran/Fr0H/AnzBKgYfSeM5qmD/8AtKkZUjBahBKgYLUIh/gfEyTf+BCpGVIwWoQSoGC1CIX7jn/J/4HEqRlSMFqEEqBgtQiF+kThp7kaUNudVYIsaH37vV3/Rd35RYipG368u8UOohjZ0dU3l/fv37927V1ZeWotHY/vQX1RhyzMxFaPvhBF+CIW5i+541P727duXL1/l5eWFhISUlZVVNaGbu5HLE46FfxUVo++EUf1dVGd357t3v//886/Jyck6OjqysrJWVlaFxYXVjaVNnYhW0kyxNDPmO33twgECUlIxWvKKwQ+iawiI7u6uP/78c2x8IjIy8tSpUz4+PsHngqWkpFRVVHJzctFlqBo8kjBURq4VIgo/hKprg6PriqPiw2AeVgFhnsjmTDxxyT/1S+kB01MxWtq6wT5G1WLLenp6fv/9f4/7+qOjYywsLGJiYkJCQiwsLOTk5c6cOaOiopKYlFReXlaDQzc8LGm8V1rZgLqRnBQbF2dkZCgmJiomJurudRZdV1DfXkxYljBRMVpCjFoeI6uaUEQS8fXrN93dPRdCQnx8fNDoUgwGY29vLy8v7+bubm/voKGhIXPqlKenJ7ykOCM75U7b7Xv378fGxoaFhYWHh5uamujoaF8IOY9EIrMLMjAPl6M1EhWjpcKo5TECUVYw/OTJmzdvenp6g4ODYTAYAoHAYrFubm6Kioqenp4XL13Kyso+e9bdwMDw5MmTdna2aDS6tq6+uromOjo6JiY2NCwsOSUlOjo6IiK8srIKhUKXlBYQiMtOZ6JitPgY4Ymoxk5EbXP5s+fPX79+3dbWFhAQAHN0xGAaysrKTE1NT58+7eZ29vKly+0PH05OPmtpafHz8zcxMTl1SkZXTzcnOzs5Odne3j40NNTLyyskJNTFxUVDQz3A3x+DwSCQCNzjUlApAQN4Igrbj2jpQ7T0lbT0lXx2nSv44KIEqBgtPkZ190pqm6omJydfv3lz69YtPz+/4HPBlRWVSATSzs5OTk7O3d392rXrHY8eTUxMjI6NjU9MdHQ8io2NtbKykpeXV1JUjImJiYqKMjQ01NPTs7Ky9vX19fP3q6ura2u7l5WdORMj/BCqEl+Yh0zLRablotLTChKKazIau75f80fFaJExqrtXUl6Fnpyc/OWXX+7evevl5RUaGorF4goKC01MTdXV1by9vK7EXWl/0D4x8XR0ZHR0ZHRsdGxi/GlvT29aepq1jY2GhoacnFxQUFBObq6NjY2jo2NISGhzc/P4+AQGg0lIuUoY+oc0wg+hypoLCosLKiurOh51DAwMEFpbc/NzkzMSMR2z7FawKOJnWiZUjBYTI2x3GaoUOTg4+Ntvv+FweBMTE3cPDwQCmZeXp6+nr6io6O3tExEa3t3ZPTkx+YmhkbGxqXNifGJkdBSJQjk5Oekb6Esek3RydKytrc3Pz8disX/++ceTJyPZObl5penTqrDuQXFBYX5dXT2RRPrzT7Lb4Q8fPgwRiZmZmWk5N7GPF/MHTns1eEnFaDFLGdOGQpeix8bHCYRWb2/vixcvVlZWpaamOjjYq6qqenl5xcfH93T3Pp2YHBsZHRsZHR8bBxgC/h0fnxifmGhsagwKCjI1Mzly5LCxkREcDh8dGX3508v79x9cCLmAbMgGK48cIKKKa9Jz83JbW2/19fW9ef3mjz/+ePv27TBpuK6uLr8op+7B3y7q//HgP/1cfeMtKkaLitE9FAJZQiSRKisrLSws6urqMBjM5chIP39/f/+A5OTkru7uiYmnYyNj5LZsZGxsdOr8SyCNjo6NP306RCTeuHHD1MRYQkJcROSIkZFRX1//08nJoqKigPM+TT3/aKdwg8j4jKiioqLHvb0D5GOw49GjO3fvthJaGzANqZnJ1W3fY70AFaNFxAhdgStoaGz4+eef+/v78/PyDAwMAgODgoKCLkdGJiYm9vX3j42Nj42SGfp0PiHD9AmpkbHx8Ynh4ZH8ggIrK4tjxyQlJcWPHhUJDg5+9erV06eTiYlJ0fER0zyMYzoLfc+5x8TE3Gtrw+PxBEIrFotram7GYDDFxfDQiAu1D2bZw+8bZc/Mx6kYLR5GQ+ii8iwcDv/+/YeXL1+Njo5V19RYWlrKnj5taWVVVFREGh4eG/tLAo2OjY+Ogyr22MjY+Nj4QP9A/icX5hJiYqJHj4o4Ozs97ut78dNPfX19OTm5qbkJ/+jJE1FFdclu7i6XL0cWFhVVVVZVVFRWVVWVl5UjUajQsDB3b7fqttldrc1E4VtiqBgtJkbwytzKqqr3799/+PDh559/GR0da2lpcXJyEhcXNzExyczK7u7pnRifILM01aiNkkUROTwxNjE0OFRQUGhtbX3smKSo6FEJCQknZ+cWbAsWhyuvqOjq6mpsbMrMTat7QLGJDxGVXRbv6e2Rl5cHh5cUFxWXl5dXVlWhUKjU1DRnZ+fgi77fZw0uFaPFw4iEKm3OuxB6AY/Hv3379sOHD++m3Oy3tz+MuHhRQlJSVVU1Njbu0cNHE+MToCiaYmj8CfFJUUGRjbXNsePHxMXFxMXFXV1dCYTWxsYmewcH2dOyPr6+VVVVDQ0N6dlppS25uP6pzyaiCivTwsLDEAhEPQZTW1tXXV1TVl5RUVFRUFBw1u1seGwQfmgxf+BcEouK0WKWcv2D4pgrkZcjI+Fw+E8//TS1Xcsfk5OT4xMTKSkpEhISJ0+cPB98/ha+dWJKSRqbatqekIbhxXA7G7tjkpLi4uIiIiK2trZNTU23Wm8FBQUZGBrKy8sdO3ZMXV09IyPzVustBAKRj8xq6kbgh9BNt2tRKFRBYWFjY2NjU2NzS0tjY1M9BpOdk+N29uy11Mu4we9hzLRMMarvzI8vDM2oiJkL/4XH1zzMuZp7gdI19sKf/YqUFbj8isry4uLi7JzsR486X04dY+Pjo6OjBQWFGuoax48dcz97tqaqepg4PDE+MTAwgChB2NnaSh07LioqKiYmZmlpVVFegcE0nD3rfuqUjLOLi7u7u4+Pr7a2tr6+fkJCQlVVdUNDY019VU0LCl2O6O3tbWlpQaHR1dU1NbW11TU1pWVlubl5cdeim7q/kxu/hWJ0Jee8rqXyTcSlryjZr3jken7omrUrt+7atJA9a+bPPxl5acOmdSfkxedPtlh38YOo0sa8mvoaQmtrUlJSU1PTs2fPh4aIAwMDvb2PMRiMsbGRuLiYtZVVYWFBd3dnSQnczs5WUkJcTExUQlzMxsamsrIKg2nw8vYWFxcTExPV1NR0d3d3cIBpamq6ubmddXc3N7dITU178mQkLy8vIDDwzp075IGi4eH79x8QCK04HO7+gwednV3VjWXfzapkoRg5+pmysDL7XXZarOKeP5/MyliBHfxqBqdxQ98qk78zRuRtuwaQKExuVU1leXl5RkZGSws2OzsnJTU1PSOzoaGhp6fby8tTVPSorq725chLMJj98eOSYmKioqJHrW2sq6qqm5ubvb29j08pSRIS4sePH9fV0VFRUbG1tQ0JCVVUUDA1NS0oKGxsbHJ1c8vIzMTh8Xfu3Pn111///PPP//3vf7///vuzZ8/R6FJ4WcFsFpWL2YiDlfjjMUK1pmoYyVm66ILftLiB748ReWOCQVRJTU5YeHhhQWFaWnpCYmJiUlJ6evrUFubVg0MD4eGhYmKiUlLHjh2TEBcXJQ8zGhuh0aiWlpaIiAh5ObmTJ09KSUlJSkrIy8urq6lbW1l5eHioq6uZmJhkZGTU1NSGhIRmZGRUVFSQSKRbt+9U19Rgsdjbt29jsbi62rr09HQvb080Ngc/SB7pXtwinZnbj8covjB0Ld9qYO+zmd/37TE/BCMCCdXYjkpLSy8tLa2vr8/JzU1MSrqZnNzQ2FCCgPf0dE1OTt68mXTmjKyIyGExsaPGxoZweFFdXa2/v7+2trbLlD7k7OKspqaurq5uY2Pj4OCgqalpamqSnJzc2NgYExtbVFRUXV3d3NxSV1c3Ojr69OlkX19fR0dHb09vV1cXCoX28vK+HHWxBouuu43C9qIJs9h6LxpeVIwWrSj/QTwRjarPr66uQaFQ9XX1FRUVZHGUdCMrMystLfXOnVsvXjz/7bdf6+pq9fX1TE1N7rbd7e/vKyws1NPTE5cQt7GxCQgIdHNzU1NTs7OzCw4+p66hbmRkFB8f39zckpaeHhkZef/+AwwGg8fj7927V1FRUVdbRx7EJhDq6+qrqqqbmppvJidfCAlBIBC379yuqEFVYItaupfK3u2bMMIOllxK8du6kx/wR3fk2MEb8IugNnMuzo0eSi8kvn+mmiyncUJg+8aIGz7THNnR0dH6R5LVr+zquK27NkmcOgLWDZ6IvFFy8dDRvbS0ZJfT23cLxGQEgXcJJFRDT6FzoMWGTbwQCISWlma/0K4b8AgCCTVTGtU+yhWVEoRAIIHRLpQ5LGK4uQdRAM9pf/CgoqLyxs2bKCQqIyMjPT0jIzMzNjZ2aGhobGxsYGDw+fPn/QMD/QMDHz58+OXXX+/ff4BCoR2dHJWVlUxNTVVVVdTU1UJDQ7W0tDS1NGPj4hoaGpKTU27cuFFaVnqrtfXp00kkEvXgQfvzFy86OjowDQ119fVt9+4RiaTa2roWLC4yMjIhIWFiYuLdu3c4HK4YXlRLQE+zM1mUX/21GBFRWZVxRyQPcnKzHzi8W1RKUFRKcOe+LcwsTGoGZ+q7yNOBtR25W3dt5uNfC+7KCHxx1f1srhUcitoyWdVxolKCew5uZ2Ri4ONfKyolKH5SOC773EyM8EPIs+dtOLk5dh/YJiolePS44K7922A+JkCGeCIyqfji5u0buFdyCh7dKyolKHLs0PY9Ah4htjMxqunIVTM4w8bOYu6ss1Ru7YmoqtbCpuaGvr4+XAuutLQUiUIXw4uLi4vT0tKrqqqfPn364cOHN6/fPHv27Nnz5+/e/Q5sKv369euenh4cDpeYmAi0Yh6enqZmZrq6epcjI6urayoqKvPz87Ozs9PS0nJyckik4SdPRhoaGzEYzN22u486O9vbH96+faemprat7f79+w/iE+JTUlKfPp347bfXTycnh588aWhoLKtG1WDRmDZ0U0/JYg1OfiVGFW2Z0grijEwM5+LcwM2R4Ngb6kZyzMxMth5GuEEEnoi08zRiYmZ0D7EBRRSBhAqIcubgYjsX5wZMD82qG02TRqW30ljZWQ6K7IFjbwA7ayHwyYWNCQBGWVVxGzbxrlzDfS7ODXCAhxtEFDUnFjTET8Oo+mGOupEcAyODubMOuC/2ovw5UmbS0ocoKs0ZnBI2d27fwePxg4NDw8NPenp6MJiGu3fbxsfHf3v9+unE09HR0WfPng0NDd2/f/9u293u7u7xsbFnz549fkweGoiLu+Lg4KCnrxcWFl5dXd3Q0PDgQXtLCzY/Px/T0NB663Z1dU1fX9+zZ8+ePBl53Nv7kHx09PX1kS/7+hITE8PCwmtqap+RARp+MjLy+PHjzs6uzs7OBw/aGxobKjHoGgKq5k5J04My/OOptU1faz3ylRhdvOHLxsFq7qRDufEUgYTKx1xft37Nev61wCbfBQ0JrGwsCpon6/7ai6mmPWfb7s3bdm1G4JOBol8IRtfyQiAQyAl5MXCfULDamh4XG1ir0dPTBcW6zipdwEatua/Yys2AgZHhtOrxmRvLgRl+e6C5F56Rf7Ovr//t27ePHj0i4AkNDY0tLdiGxkYcDt/5qHNkZGR0ZPTVq1cDAwMFhYXxCQnZWdkFBQU3byZfu3a9rKx8ePjJ+Ph4+8OHxXB43JUr5eUVA4ODTU1NY+Pj/f0D1TU1jY3kMe7W1tbq6prm5pbe3sdkLXtiYnxsfHBwEE8gZGVlBwcHFxUVDw8Pk4aHR8fGenp6kpKSHB2d0tPTb9++TRwiDg8/GRwa7OruxBNwpRXI0sbCKkIxrv9r9KevxMjQRp2JmXHm0DB2ECEpc4SVjSUqjbxbOYGEUtY9xb9lPSg5ruScZ2Ri1DJVBP2FLwSjyvtZvBvXrlm3KjjOrbwtgxIXJCFFSGw/5woOkNRpHHzCSE7MM9SemZVZVuX4tASLfokfRGcWJscnJDydnJycfNbe/rCt7R4ej2+720buSfU+nph4Ojz8pBRdeu3atYaGxqcT5IQD/f093T1dnV3wYnhKSsq9e/eeP3/R399//8GDifGJt2/fPiTb/0/+/vvvRCIJh8PVYzA11dWNjY3kHn5dXWlpaXl5RVlpGVndrqu/efNmbl7eONmigGzUNDg4lJ9fYG5uISMjc0xSwtLCIikxkUBoHR+f+H3q+PnnV+PjE7duiF1qFgAAEeRJREFU3YYjCzAP4F+6tPIrMVI3lNsowAdvITcxlCduCKFroUyJUWi8FxMLU0i8J3nz8n64sb0GIxNDTs0V8KmFYEQgoS4l++0V3AGF0u8+uM3R37ywMQHwO56Pub5j7xaxk8JghtMCAEZbdmxkY2fZK7gDlILTki3iJX4QXYFBIhCIxMTE+vp6IpE4OjpKIg2PjIyMjZHFSV19fW5eXm1tLYlE6u3tra6tLEEXIEqLkOXF5TUoTBOmqakZDoeXlpY+7OggkUhjY2OvX79+8eKnJyOjL356SZ6kGx/v7OzC4/F1dXXkxq69va+vb0pJahgbGy8rL8/PL3jy5MnTicknT0YGBgcrKisDAgK8vLx0dXWljh+XlJSUk5Ozd3AoLS0jEolv3rz58OHDx48f379/PzHxtKG5rvYWecJuIWXS3Fecgrr8lRjJKEms37SuuOnT/p7g+2ZilI+5vmUnPyAD0LdShcX2Hziyu2Xg70ULC8QIT0QVNSX6XITtF95FT0+3+8A2YGZmgRjtF951SGTPWr7V4Yne4NcuUaClD1FejxwfHye3WQWFiYmJdXV19+7du337dkkJIinpBgaDeTIy8vLly6qqqpzi9KpbBQ2d8JZeVHMPEtNRXEkoKELm1WMwt+/cLS6Gl5eTBxhfvnr1/MWLiYmn/f39IyMjT0ZGR0dHJ54+ffjwYUNDAwbTUFdXVwIvQaHQ5eUVWdk5jx8/JrecI6MkEqm2ttbc3MzX1zchMdHExERGRkZNlTyMqaykbGxsnJ9fQBoe/uWXXz5MHR8/fPj51c9YPLa8uaiV9I+1AzOLK7f2qrqR3IbNvAvCCDeE0DRW4ORmj80KBvIysFFjYISmoCOnZY0dQIhKCXFwsYO9syndRZ2Ng7W6Peda3gW+DTzX8kMon1ogRp8eIaJwQ4jAGFdmFiZB0X0EEgrVmnpY4sC2PQJNvRSGOBQyEtSN0sujN2zmZWRkyKaQhZRfslhhbD+yrA5BIpE+fvz47t271tZbsXFxgYGBoaFhBQUFTyfJ3bSRkZHk5ORcdDJ+YJY/+sZORE5JalFxQd/jvoryihs3btx/0P7b6zfv379/+erV4OAQkTRMJJKIRDJeRCIRjyc0NTY1NDRgsdi0tPTOzs7Jycnh4SdPnjwhEAgeHh6WlhZ2dnbR0dEuLi6qqqp6erphoWGWlpb6evq6uroFBQVDQ8RPJE0ZS/322+u6urqypqLWeZdW2noYcXCyk0dtFlJ2Ne05uw9sW8u3uqDhU+focrI/OwcbpYoD5JNZGcvDu3r77s3lbRlADJ6IjLjhw7WCwzvCwd7bZM+hHdXtOZQvBTDSNlOijJzWU6O8RR5KeJQrq3KMf+v6xp6i+q58Ff3TDAzQSyn+s26vAWKEJyIvp/ivWbuSeyXntbwLlArWtPy/+RLd8ABVAM/r7u5++/btx48f//jjj+fPngP19Mcff3Q86sjMS0NgMluHZ2Hor7ejK1rzCpE5eALu9u3bhUVF6NLSwcHB//3+vz///PP5ixcjI6PDw2SYnj1//vzFi57unrt372Kx2EednZPPnk0NBYzcf/DgcmSklZWlkZGRlra2m5ubk5OTpqamurq6jo6On7+/i4urmZmZiYlJ8s3kru6el69eATZ3Hz98ePv2LaEVV9uKJE+nUPxZTgsXNSXqmivPiRF+CJlWFl3dno0kJJs76zAxM6oZnAEbI/StVAmZI1AGqEugZdmdT0tecuuuyaocY2FlvpziT/my8rsZew/t2L5bQFj8gJ6VyrRt5FJQlzds5uUX4CtvywSfmoZRUVNiYlEY2L26ibi0ddfmo8cFAT09GXl53fo1m7dtCIv/tBExdhCRXX0lvTx6WocfP4T0v+zExMy0ZQf/0lorENHVd4rSsm7W1lZPTk4CmsfHjx9//fXXurq6nKL0mrbChaixzT2IoqqMopLCu21tWCwuNzevqrJqbGzs/fv37969Gx8fJw0Pk6XOyMgvv/zy8uXLFy9evHz5avjJyJMnIz29vdHR0WRc/PxgMEdTUxNXN1dNTc0zZ84YGRnp6+vZ2dmZmJro6uqekTtjZGR45crVjkePXr36+RNJHz++ffv2fvu9+tufn0iZEyPcIELdkNzs8W7kYWJmFDspRClF8ERkASZeYAc/MwvTev51m7dv3Lx941q+1WvWrfS95DjN7JxARNl5GdHS0vBu4LmScx5kBQjUPMyRVpSgpaVdv2nd1p2bIm74zhx+jMs+t3I1N/8WPuBFa9auXLGKC4QVN4iITA1g42Dl4GL7lGbbBh7eVe7nbaZhRCChsAMlYfFezCxMfPxry+9+EpnTPmmRLtHNPQh0U05+cR4WhxscHHrw4EFeXn5OSUpzzxeYAeEGkXX3igrQGSg0qqOjo7q6+np8PBaH+/333/98//7nn38mkYZHR0efPHny22+vX79+TSSSRkZGH/f1JSUlmZmbGhjoaWio+/r6OTk76+joyMvLKygo2NrZWliYq6gomZqaaGhqaGtr29jYGBsbX7p06dGjzlevXv35x5/AiOi7d+/uP7hXjSuZ33HAfBi5BFry8K7etG2DjbtBQ3fBzMLFDSF8LznuP7ybh3c1D+9qfWu14qakWVuW7OorEAjksPiBaVuhfyKpPUfV4DQP7+r1/OsAOPIx10WOHVLSOQUkqG7PtnbTFxTdB7xIw1i+qDFx2vfUduRandUX2MHPw7t66+7NbsFWNVOtZ0ZFzCGRPWqGZ8D0Lf1we28THt7VEjJHmvv+sV4HTLNYgVYSuv4+IjUnKeZaZMz1y8j67Nbhz+its74aP4RCNWSnZSd393Q/7OhISEgoLCp68eKn9+/f//bbb319/ePj45OTz3755ZeJp0/7+weKiuF6erqmpsa6ujo2NtYeHh4ODg7m5uZGRkaqqqpqamqGhgYKCnIGBvpGxkaWlpZmZma2trYG+vrnzp+/f//BTy9fAjKJbAr87l11TU3Dg3naX9ScGM36Y746MjYrmB5Kb+mmBw4XfXVW/8YH8YPkmYeWPsS32WygMY+Kc5Ep1fUVd+7eRZeWpqdn3L1z982bN69fvx4eHn727Pn//ve/yclnKDTa1MzU0NDg0qWLamqqjo6OdnZ2ZuZmRsbG+voGampqU6ZwZ318vBQV5bW1tfT0dFRUVWxtbUxMjJUUFX18fJuam1+9evXxw8ePHz6+f//hYUcHqqYAPzgnSd8DI0x3gYySJNcKjqyquH8jBMvqm3GDqNp7hYWonJramvaHHVlZ2WVlZW/fvnvz5s3IyOjbd+9ev36dk5OjqqqqrKykpaUhJ3daW1vLwsIiKirK3sHe2dlZS1tLUUFBT083IiLcyNBgysTAWF1dzdBQX0VVWUtT8/yFc+fOnWtsbHr39t3HD2SWhoefICrzcQNzmhB+D4yuZJ9buYZbSefUrO3dsqqkf8vHtDxGFFVm5ObndHZ25ebmZWZlvXnz5qeXL588Gfnw4cPDjoeeHp5iYqKyp6SNjY3s7O3MTE2dnV08PDxd3VxPn5aVl5fX0db28fGGwRzMTE0cHWG6utqqqsqqqipxcbFDQwOFhQWWlpa3bt3+9dff3r55Ozg0BC/PwQ7MqdItIUaNvUWJReFhiV67D27fuJm3uHn6WOW/pc6W7XfW3C0sQuQ9fPgwKysrMyvr2bPnwKjmr7/9Bi8pUVJWkpY+oaam4uLq4uXtZWhoaGlppa+nf+3aNVtbW0cYzNLSQlNLQ0dHy9XNRVtbS01NJSgooK+vb3Bw8OrVq9bW1q2trePj4+MTE7fv3ClAZfwYaVTQkMDIxABloD8ksvf6P4ccl23F/Ms+jIiqul1QgMjt7OqCl5Sg0aU//fQTkUj6/fffHz/uCwoOUlNT0dbWNDQ0CA0NMzMzV1JSkpeX9w/w9/Xzc3FxNjU11tfXMTTUNzY2UldTPXvWjUAgjI6OZWdn29vZo9HowcGhkdHRvr7+3PzcMmz+PIrdEkqjpr7irKq4rOq40ttp0wwB/mW1Nffg2w//IXgiqrqtMCUj+fbt29k5OS1Y7IsXP7148eLt27eVVZVnz7oaGRrY2tr4+PpaWFgYG5vo6unKysrq6OgYGRva2FjBYPb6+vpKiopmZmY1NbUjI6O1tbVmZubp6Rn9Ux4HiCQSvAQRHhmKG5hvEHIJMfrhRfz/5wMwD+HZeZn19fXR0VGDA4PPnj0jj3Q/f45CIVxdXYyMjMymDmsbayMjI00tTW0tLWVlJRsbaxtrazXyoZqXlzcyMtLW1mZgaBgecbG7u3dsbJxIJGFxuKCg4MTMK/MvMqFiNN8f2b8IxLr7xdX1FWh0aUZGBpFI/PmXX/58/+fk5GR5RYWbm6uqirKpqYmlpYWRkaGmloaevq7G/7Vzpz+JnGEAwP9Az7XayuqmcdV0s7UxMdGku/VLrWlRFNFlUJfLlSNyKMPsCqJcIqJyLLIqoqAMM1wiuju4eBaaAWONqWdpP4zvt+FKmIffPGHe93meb57U1X3/bVVlVVXV0NBwEEWdTldbW1tra5vT5cJwsiZqedkDQRCd2WlYuWV1DTCiCKP5bbJoX280iCWSmRl9JBpLp8k5AjuJxPS07tWrn5/mViNptO9oT6tfvPjh2bOaioonpaXFdDrd5/NtbW11d3c3NzcvLS2hoRAeDm9sbPL4Ajrjd/Xc6K2XE2BEEUZkOZdPBU8qbbYFpXLc7/eTFd+57XqC+GyxWNrb20tLS8rLyiorK58/rysuLi4vL2tpaXE6ydwjkUgbGxt1Oh2Kong47A8EFApFR8dvPDFk8V97n3/BCzCiDiOyPcatMhj0k5Mau90eCoXOzs63xg6+fp2bs3Z2dlZUVJDL1tW0oqKi+oZ6o9EUCmEwgtBo1SMj78hBXtHodjCo1xv+oNPfDDNnPHea+QcYUYqRNQBrptW5YYFGPBz58oXITxTNZrMEQSwuLfX09NTU1JSUlNTX16uR9xiGG4zGhoYGBoPh9XrDkQiOhxcWFtlsCOKx9HczZEP/rz21i+wHDv7rCJg8sGnWqNVq4zs728Hg4WE6myuQzWQyh+m0w+kcGBiora3lcrmRaPSj293a2vprR4fX681VueHr6z4en896w9S5/mEz/rovD7IRpbIROYjCr7YuWCYmVNb5+cTuLo7jR0dH+TrrbDZzenrq8XhYLNbr17/Y7Y6u7q6mn5pcro9kxXeU7CoRSyQ9fT1KvfBeO1eAEdUYzW+rTYu6WYuFyeybm7NGIlEMw1OpVK7S+s9sJnNycrKyssqBoKamppc/vpzUaHJdA2TluFqNMBgMoXxoduPvYvnrMtDl5wEjyjEKwh9MCofTaTKZurq6TCZzLBZHUfRzvkA2d+92dHzsXV8XCASwCvb7A5FIFEVDRqMRgjjQ236z95ZVosuA8seAEdUY2VBY71aqEGU6nXY4HL29vfoZfSKxGwqFksnkeftHrpcoHCbnCERjcQzDl5c9g0ND/VCffvlOt2ZXJAFGFGRk3VJJ3/OmdFqCIOxLdhaLpdVOYRgWRNHk3t7Z2dlFbfjR0XE8Hl9dW+MLBGxO/web5IqPOz4EjCjIiCw535yQIlw1ApNKVteG33LVaiQQ2AphWCwWIwji4OCAIFKxWMzrXZdIpax+llwjnLu+MO1mT4ARNRnlZwfKNAKFUrG/v59IJIQjI2NjY8FgMJlM4hiea5sk+yERBGGz2dxRzqzvfn+rL8MCjCjLKD87cGJaLJOPJZN7u7u7EolEJBJ5Pn1KJveIVGonkZia0pEDBXnQv5xZCxhRmRGZMLYRxCwdlQo3Nzfj8bhGo+Hz+CKReHx8XCQSvxsdFYzwNAv3WGm8nIQujgEjqjNC4QVUPe2SiWUjZrM5Ht8hRx+73TabzWqdH1cpEbPk5r7YCys3HABG1GeU//mNq0rh2GAvs1cmlxsMBhiGOYMcxbSwIAPXAKPHwojEFES0izK+nD0sZgoVbL1bfnNN4w3p58pLgNFjYnReVH5t1+IVHHd/CBg9QkaFP2XAqPAxvftFTJl3AkaAUQEiABgVIIiUSSoPPhHACDAqQAQAowIE8cEXMWU+CBgBRgWIAGBUgCBSJqk8+EQAI8CoABH4C0XDvxi6jLTxAAAAAElFTkSuQmCC;" vertex="1" parent="1">
          <mxGeometry x="260" y="280" width="194" height="204" as="geometry" />
        </mxCell>
      </root>
    </mxGraphModel>
  </diagram>
</mxfile>
